<svg width="20" height="20" viewBox="0 0 20 20" fill="none" xmlns="http://www.w3.org/2000/svg">
<path d="M7.70831 7.54169C9.19165 8.08335 10.8083 8.08335 12.2916 7.54169" stroke="white" stroke-linecap="round" stroke-linejoin="round"/>
<path d="M14.0169 1.66669H5.98357C4.20857 1.66669 2.76691 3.11669 2.76691 4.88335V16.625C2.76691 18.125 3.84191 18.7584 5.15857 18.0334L9.22524 15.775C9.65857 15.5334 10.3586 15.5334 10.7836 15.775L14.8502 18.0334C16.1669 18.7667 17.2419 18.1334 17.2419 16.625V4.88335C17.2336 3.11669 15.7919 1.66669 14.0169 1.66669Z" stroke="white" stroke-linecap="round" stroke-linejoin="round"/>
<path d="M14.0169 1.66669H5.98357C4.20857 1.66669 2.76691 3.11669 2.76691 4.88335V16.625C2.76691 18.125 3.84191 18.7584 5.15857 18.0334L9.22524 15.775C9.65857 15.5334 10.3586 15.5334 10.7836 15.775L14.8502 18.0334C16.1669 18.7667 17.2419 18.1334 17.2419 16.625V4.88335C17.2336 3.11669 15.7919 1.66669 14.0169 1.66669Z" stroke="white" stroke-linecap="round" stroke-linejoin="round"/>
</svg>
