<svg width="24" height="24" viewBox="0 0 24 24" fill="none" xmlns="http://www.w3.org/2000/svg">
<path d="M16.8203 1.91003H7.18031C5.06031 1.91003 3.32031 3.65003 3.32031 5.77003V19.86C3.32031 21.66 4.61031 22.42 6.19031 21.55L11.0703 18.84C11.5903 18.55 12.4303 18.55 12.9403 18.84L17.8203 21.55C19.4003 22.43 20.6903 21.67 20.6903 19.86V5.77003C20.6803 3.65003 18.9503 1.91003 16.8203 1.91003ZM15.6203 9.03003L11.6203 13.03C11.4703 13.18 11.2803 13.25 11.0903 13.25C10.9003 13.25 10.7103 13.18 10.5603 13.03L9.06031 11.53C8.77031 11.24 8.77031 10.76 9.06031 10.47C9.35031 10.18 9.83031 10.18 10.1203 10.47L11.0903 11.44L14.5603 7.97003C14.8503 7.68003 15.3303 7.68003 15.6203 7.97003C15.9103 8.26003 15.9103 8.74003 15.6203 9.03003Z" fill="#EA5427"/>
</svg>
