<svg width="20" height="21" viewBox="0 0 20 21" fill="none" xmlns="http://www.w3.org/2000/svg">
<path d="M0.833313 18.8333H19.1666" stroke="#292D32" stroke-miterlimit="10" stroke-linecap="round" stroke-linejoin="round"/>
<path d="M16.4827 18.8417V15.125" stroke="#292D32" stroke-miterlimit="10" stroke-linecap="round" stroke-linejoin="round"/>
<path d="M16.4997 9.57512C15.483 9.57512 14.6663 10.3918 14.6663 11.4085V13.3001C14.6663 14.3168 15.483 15.1334 16.4997 15.1334C17.5163 15.1334 18.333 14.3168 18.333 13.3001V11.4085C18.333 10.3918 17.5163 9.57512 16.4997 9.57512Z" stroke="#292D32" stroke-miterlimit="10" stroke-linecap="round" stroke-linejoin="round"/>
<path d="M1.74969 18.8333V5.52503C1.74969 3.85003 2.58307 3.00835 4.2414 3.00835H9.43305C11.0914 3.00835 11.9164 3.85003 11.9164 5.52503V18.8333" stroke="#292D32" stroke-miterlimit="10" stroke-linecap="round" stroke-linejoin="round"/>
<path d="M4.83398 7.375H8.95899" stroke="#292D32" stroke-miterlimit="10" stroke-linecap="round" stroke-linejoin="round"/>
<path d="M4.83398 10.5H8.95899" stroke="#292D32" stroke-miterlimit="10" stroke-linecap="round" stroke-linejoin="round"/>
<path d="M6.875 18.8333V15.7083" stroke="#292D32" stroke-miterlimit="10" stroke-linecap="round" stroke-linejoin="round"/>
</svg>
