<svg width="20" height="21" viewBox="0 0 20 21" fill="none" xmlns="http://www.w3.org/2000/svg">
<path d="M12.5 6.39167C12.5 5.83334 12.225 5.31667 11.7583 5.00834L8.425 2.78334C7.86667 2.40834 7.13333 2.40834 6.575 2.78334L3.24167 5.00834C2.78333 5.31667 2.5 5.83334 2.5 6.39167V11.125C2.5 11.3583 2.68333 11.5417 2.91667 11.5417H12.0833C12.3167 11.5417 12.5 11.3583 12.5 11.125V6.39167ZM7.5 9.45834C6.7 9.45834 6.04167 8.80001 6.04167 8.00001C6.04167 7.20001 6.7 6.54167 7.5 6.54167C8.3 6.54167 8.95833 7.20001 8.95833 8.00001C8.95833 8.80001 8.3 9.45834 7.5 9.45834Z" fill="white"/>
<path d="M18.3334 18.2083H17.275V15.7083C18.0667 15.45 18.6417 14.7083 18.6417 13.8333V12.1667C18.6417 11.075 17.75 10.1833 16.6584 10.1833C15.5667 10.1833 14.675 11.075 14.675 12.1667V13.8333C14.675 14.7 15.2417 15.4333 16.0167 15.7V18.2083H12.5V13.2083C12.5 12.975 12.3167 12.7917 12.0834 12.7917H2.91669C2.68335 12.7917 2.50002 12.975 2.50002 13.2083V18.2083H1.66669C1.32502 18.2083 1.04169 18.4917 1.04169 18.8333C1.04169 19.175 1.32502 19.4583 1.66669 19.4583H16.6084C16.625 19.4583 16.6334 19.4667 16.65 19.4667C16.6667 19.4667 16.675 19.4583 16.6917 19.4583H18.3334C18.675 19.4583 18.9584 19.175 18.9584 18.8333C18.9584 18.4917 18.675 18.2083 18.3334 18.2083ZM6.87502 15.7083C6.87502 15.3667 7.15835 15.0833 7.50002 15.0833C7.84169 15.0833 8.12502 15.3667 8.12502 15.7083V18.2083H6.87502V15.7083Z" fill="white"/>
</svg>
