<svg width="20" height="21" viewBox="0 0 20 21" fill="none" xmlns="http://www.w3.org/2000/svg">
<path d="M10.8334 18.8333H4.16669C2.50002 18.8333 1.66669 18 1.66669 16.3333V9.66667C1.66669 8.00001 2.50002 7.16667 4.16669 7.16667H8.33335V16.3333C8.33335 18 9.16669 18.8333 10.8334 18.8333Z" stroke="#292D32" stroke-miterlimit="10" stroke-linecap="round" stroke-linejoin="round"/>
<path d="M8.42501 3.83333C8.35834 4.08333 8.33335 4.35833 8.33335 4.66666V7.16666H4.16669V5.49999C4.16669 4.58333 4.91669 3.83333 5.83335 3.83333H8.42501Z" stroke="#292D32" stroke-miterlimit="10" stroke-linecap="round" stroke-linejoin="round"/>
<path d="M11.6667 7.16667V11.3333" stroke="#292D32" stroke-miterlimit="10" stroke-linecap="round" stroke-linejoin="round"/>
<path d="M15 7.16667V11.3333" stroke="#292D32" stroke-miterlimit="10" stroke-linecap="round" stroke-linejoin="round"/>
<path d="M14.1667 14.6667H12.5C12.0417 14.6667 11.6667 15.0417 11.6667 15.5V18.8333H15V15.5C15 15.0417 14.625 14.6667 14.1667 14.6667Z" stroke="#292D32" stroke-miterlimit="10" stroke-linecap="round" stroke-linejoin="round"/>
<path d="M5 11.3333V14.6667" stroke="#292D32" stroke-miterlimit="10" stroke-linecap="round" stroke-linejoin="round"/>
<path d="M8.33331 16.3333V4.66667C8.33331 3.00001 9.16665 2.16667 10.8333 2.16667H15.8333C17.5 2.16667 18.3333 3.00001 18.3333 4.66667V16.3333C18.3333 18 17.5 18.8333 15.8333 18.8333H10.8333C9.16665 18.8333 8.33331 18 8.33331 16.3333Z" stroke="#292D32" stroke-miterlimit="10" stroke-linecap="round" stroke-linejoin="round"/>
</svg>
