<svg width="22" height="20" viewBox="0 0 22 20" fill="none" xmlns="http://www.w3.org/2000/svg">
<path d="M18.6649 6.67498L12.9791 2.30831C11.868 1.45831 10.1319 1.44997 9.02947 2.29997L3.34371 6.67498C2.52774 7.29998 2.03295 8.54997 2.20656 9.53331L3.30031 15.8166C3.55204 17.225 4.91489 18.3333 6.39927 18.3333H15.6007C17.0677 18.3333 18.4566 17.2 18.7083 15.8083L19.802 9.52497C19.9583 8.54997 19.4635 7.29998 18.6649 6.67498ZM11.651 15C11.651 15.3416 11.3559 15.625 11 15.625C10.6441 15.625 10.3489 15.3416 10.3489 15V12.5C10.3489 12.1583 10.6441 11.875 11 11.875C11.3559 11.875 11.651 12.1583 11.651 12.5V15Z" fill="url(#paint0_linear_3_1037)"/>
<defs>
<linearGradient id="paint0_linear_3_1037" x1="2.17194" y1="9.99997" x2="19.8308" y2="9.99997" gradientUnits="userSpaceOnUse">
<stop stop-color="#F6A38A"/>
<stop offset="1" stop-color="#905F51"/>
</linearGradient>
</defs>
</svg>
