<svg width="20" height="20" viewBox="0 0 20 20" fill="none" xmlns="http://www.w3.org/2000/svg">
<path d="M16.8244 11.7167L15.8827 10.15C15.6744 9.80837 15.491 9.15004 15.491 8.75004V7.19171C15.491 4.16671 13.0327 1.70837 10.016 1.70837C6.99102 1.71671 4.53269 4.16671 4.53269 7.19171V8.74171C4.53269 9.14171 4.34936 9.80004 4.14936 10.1417L3.20769 11.7084C2.84936 12.3167 2.76602 13.0084 2.99102 13.6084C3.21602 14.2167 3.72436 14.7 4.39102 14.9167C5.29102 15.2167 6.19936 15.4334 7.12436 15.5917C7.21602 15.6084 7.30769 15.6167 7.39935 15.6334C7.51602 15.65 7.64102 15.6667 7.76602 15.6834C7.98269 15.7167 8.19935 15.7417 8.42435 15.7584C8.94935 15.8084 9.48269 15.8334 10.016 15.8334C10.541 15.8334 11.066 15.8084 11.5827 15.7584C11.7744 15.7417 11.966 15.725 12.1494 15.7C12.2994 15.6834 12.4494 15.6667 12.5994 15.6417C12.691 15.6334 12.7827 15.6167 12.8744 15.6C13.8077 15.45 14.7327 15.2167 15.6327 14.9167C16.2744 14.7 16.766 14.2167 16.9994 13.6C17.2327 12.975 17.166 12.2917 16.8244 11.7167ZM10.6244 8.33337C10.6244 8.68337 10.341 8.96671 9.99102 8.96671C9.64102 8.96671 9.35769 8.68337 9.35769 8.33337V5.75004C9.35769 5.40004 9.64102 5.11671 9.99102 5.11671C10.341 5.11671 10.6244 5.40004 10.6244 5.75004V8.33337Z" fill="#535E6E"/>
<path d="M12.3581 16.675C12.0081 17.6417 11.0831 18.3333 9.99975 18.3333C9.34142 18.3333 8.69142 18.0667 8.23308 17.5917C7.96642 17.3417 7.76642 17.0083 7.64975 16.6667C7.75808 16.6833 7.86642 16.6917 7.98308 16.7083C8.17475 16.7333 8.37475 16.7583 8.57475 16.775C9.04975 16.8167 9.53308 16.8417 10.0164 16.8417C10.4914 16.8417 10.9664 16.8167 11.4331 16.775C11.6081 16.7583 11.7831 16.75 11.9497 16.725C12.0831 16.7083 12.2164 16.6917 12.3581 16.675Z" fill="#535E6E"/>
</svg>
