<svg width="24" height="24" viewBox="0 0 24 24" fill="none" xmlns="http://www.w3.org/2000/svg">
<path d="M20.3591 12.7301C19.9891 12.7301 19.6791 12.4501 19.6391 12.0801C19.3991 9.88007 18.2191 7.90007 16.3991 6.64007C16.0691 6.41007 15.9891 5.96007 16.2191 5.63007C16.4491 5.30007 16.8991 5.22007 17.2291 5.45007C19.3991 6.96007 20.7991 9.32007 21.0891 11.9301C21.1291 12.3301 20.8391 12.6901 20.4391 12.7301C20.4091 12.7301 20.3891 12.7301 20.3591 12.7301Z" fill="#292D32"/>
<path d="M3.73931 12.7802C3.71931 12.7802 3.68931 12.7802 3.66931 12.7802C3.26931 12.7402 2.97931 12.3802 3.01931 11.9802C3.28931 9.3702 4.66931 7.0102 6.81931 5.4902C7.13931 5.2602 7.59931 5.3402 7.82931 5.6602C8.05931 5.9902 7.97931 6.4402 7.65931 6.6702C5.85931 7.9502 4.68931 9.9302 4.46931 12.1202C4.42931 12.5002 4.10931 12.7802 3.73931 12.7802Z" fill="#292D32"/>
<path d="M15.9906 21.0998C14.7606 21.6898 13.4406 21.9898 12.0606 21.9898C10.6206 21.9898 9.25059 21.6698 7.97059 21.0198C7.61059 20.8498 7.47059 20.4098 7.65059 20.0498C7.82059 19.6898 8.26059 19.5498 8.62059 19.7198C9.25059 20.0398 9.92059 20.2598 10.6006 20.3898C11.5206 20.5698 12.4606 20.5798 13.3806 20.4198C14.0606 20.2998 14.7306 20.0898 15.3506 19.7898C15.7206 19.6198 16.1606 19.7598 16.3206 20.1298C16.5006 20.4898 16.3606 20.9298 15.9906 21.0998Z" fill="#292D32"/>
<path d="M12.0505 2.00977C10.5005 2.00977 9.23047 3.26977 9.23047 4.82977C9.23047 6.38977 10.4905 7.64977 12.0505 7.64977C13.6105 7.64977 14.8705 6.38977 14.8705 4.82977C14.8705 3.26977 13.6105 2.00977 12.0505 2.00977Z" fill="#292D32"/>
<path d="M5.05047 13.8701C3.50047 13.8701 2.23047 15.1301 2.23047 16.6901C2.23047 18.2501 3.49047 19.5101 5.05047 19.5101C6.61047 19.5101 7.87047 18.2501 7.87047 16.6901C7.87047 15.1301 6.60047 13.8701 5.05047 13.8701Z" fill="#292D32"/>
<path d="M18.9509 13.8701C17.4009 13.8701 16.1309 15.1301 16.1309 16.6901C16.1309 18.2501 17.3909 19.5101 18.9509 19.5101C20.5109 19.5101 21.7709 18.2501 21.7709 16.6901C21.7709 15.1301 20.5109 13.8701 18.9509 13.8701Z" fill="#292D32"/>
</svg>
